<?xml version="1.0" encoding="iso-8859-1"?>
<!-- Uploaded to: SVG Repo, www.svgrepo.com, Generator: SVG Repo Mixer Tools -->
<svg fill="#000000" height="800px" width="800px" version="1.1" id="Layer_1" xmlns="http://www.w3.org/2000/svg" xmlns:xlink="http://www.w3.org/1999/xlink" 
	 viewBox="0 0 490.706 490.706" xml:space="preserve">
<g>
	<g>
		<path style=" stroke:none;fill-rule:nonzero;fill:rgb(100%,100%,100%);fill-opacity:1;" d="M490.133,178.037c-1.493-4.373-5.547-7.253-10.133-7.36H309.653l-54.187-163.2c-1.813-5.547-7.893-8.64-13.44-6.827
			c-3.2,1.067-5.76,3.627-6.827,6.827l-54.187,164.267H10.667C4.8,170.784,0,175.477,0,181.45c0,3.307,1.493,6.4,4.16,8.427
			l136.96,107.2L81.493,476.49c-1.92,5.547,1.067,11.627,6.72,13.547c3.307,1.067,6.933,0.533,9.707-1.493l147.52-107.52
			L392.96,486.09c4.8,3.413,11.413,2.347,14.827-2.453c1.92-2.773,2.453-6.293,1.493-9.493L350.187,292.81L486.4,189.984
			C490.133,187.21,491.627,182.41,490.133,178.037z M331.307,280.224c-3.627,2.773-5.12,7.467-3.733,11.84l51.413,157.76
			l-127.36-90.773c-3.733-2.667-8.747-2.667-12.48,0.107l-126.827,92.48l51.413-154.88c1.387-4.267,0-8.96-3.52-11.733L41.6,192.01
			h147.093c4.587,0,8.64-2.987,10.133-7.36l46.507-140.16l46.507,140.16c1.493,4.373,5.547,7.253,10.133,7.36h146.133
			L331.307,280.224z"/>
	</g>
</g>
</svg>