<svg id="svg" xmlns="http://www.w3.org/2000/svg" xmlns:xlink="http://www.w3.org/1999/xlink" width="400" height="400" viewBox="0, 0, 400,400"><g id="svgg"><path id="path0" d="M174.031 1.185 C 30.074 18.610,-46.892 171.463,30.168 286.894 L 37.585 298.004 19.118 341.459 C -0.891 388.543,-1.132 389.303,2.225 394.724 C 7.511 403.261,7.313 403.305,68.136 380.037 L 120.320 360.075 130.668 363.592 C 272.119 411.670,416.829 303.900,398.755 163.939 C 385.539 61.601,283.777 -12.099,174.031 1.185 M213.281 24.562 C 287.395 27.902,355.304 82.470,371.931 152.044 C 402.914 281.689,261.279 390.009,129.688 337.309 C 120.638 333.685,121.919 333.362,76.605 350.691 C 54.069 359.309,35.538 366.267,35.423 366.153 C 35.309 366.038,41.536 351.059,49.260 332.866 C 67.320 290.331,66.591 295.096,56.974 282.442 C -18.242 183.470,42.202 47.336,170.768 26.151 C 178.370 24.899,197.334 23.565,201.953 23.958 C 203.242 24.067,208.340 24.339,213.281 24.562 M188.396 72.613 C 156.605 84.364,156.828 128.718,188.735 139.894 C 200.728 144.095,215.852 140.523,225.062 131.312 C 242.200 114.175,237.143 84.778,215.234 74.184 C 208.111 70.739,195.468 69.999,188.396 72.613 M205.749 96.795 C 215.116 102.971,211.109 117.177,200.000 117.177 C 197.867 117.177,195.606 116.598,194.251 115.705 C 184.884 109.529,188.891 95.323,200.000 95.323 C 202.133 95.323,204.394 95.902,205.749 96.795 M170.032 166.326 C 164.520 169.961,164.854 165.896,164.854 229.297 C 164.854 292.698,164.520 288.633,170.032 292.267 C 173.470 294.534,226.530 294.534,229.968 292.267 C 235.480 288.633,235.146 292.698,235.146 229.297 C 235.146 165.896,235.480 169.961,229.968 166.326 C 226.530 164.060,173.470 164.060,170.032 166.326 M211.719 229.297 L 211.719 270.313 200.000 270.313 L 188.281 270.313 188.281 229.297 L 188.281 188.281 200.000 188.281 L 211.719 188.281 211.719 229.297 " stroke="none" fill="#ffffff" fill-rule="evenodd"></path></g></svg>